<?xml version="1.0" encoding="UTF-8" standalone="no"?>
<!DOCTYPE svg PUBLIC "-//W3C//DTD SVG 1.1//EN" "http://www.w3.org/Graphics/SVG/1.1/DTD/svg11.dtd">
<svg width="100%" height="100%" viewBox="0 0 1800 945" version="1.1" xmlns="http://www.w3.org/2000/svg" xmlns:xlink="http://www.w3.org/1999/xlink" xml:space="preserve" xmlns:serif="http://www.serif.com/" style="fill-rule:evenodd;clip-rule:evenodd;stroke-linejoin:round;stroke-miterlimit:2;">
    <g transform="matrix(1,0,0,1,-13540.1,-12046.6)">
        <g id="bg-default" transform="matrix(1,0,0,1,2209.75,6765.79)">
            <rect x="11330.4" y="5280.84" width="1800" height="945" style="fill:rgb(141,153,174);"/>
            <clipPath id="_clip1">
                <rect x="11330.4" y="5280.84" width="1800" height="945"/>
            </clipPath>
            <g clip-path="url(#_clip1)">
                <g transform="matrix(22.6791,-2.54476e-31,0,22.935,-16714.7,-26568)">
                    <g transform="matrix(1.09391,0,0,1.08171,337.012,473.469)">
                        <path d="M822.364,846.058C832.875,846.058 841.409,854.592 841.409,865.104C841.409,875.615 832.875,884.149 822.364,884.149C811.852,884.149 803.318,875.615 803.318,865.104C803.318,854.592 811.852,846.058 822.364,846.058ZM822.364,848.523C831.515,848.523 838.944,855.953 838.944,865.104C838.944,874.255 831.515,881.684 822.364,881.684C813.213,881.684 805.783,874.255 805.783,865.104C805.783,855.953 813.213,848.523 822.364,848.523Z" style="fill:rgb(237,242,244);"/>
                    </g>
                    <g transform="matrix(0.753093,0,0,0.744691,617.289,765.023)">
                        <path d="M822.364,846.058C832.875,846.058 841.409,854.592 841.409,865.104C841.409,875.615 832.875,884.149 822.364,884.149C811.852,884.149 803.318,875.615 803.318,865.104C803.318,854.592 811.852,846.058 822.364,846.058ZM822.364,849.639C830.899,849.639 837.828,856.568 837.828,865.104C837.828,873.639 830.899,880.568 822.364,880.568C813.829,880.568 806.899,873.639 806.899,865.104C806.899,856.568 813.829,849.639 822.364,849.639Z" style="fill:rgb(237,242,244);"/>
                    </g>
                    <g transform="matrix(0.366378,0,0,0.36229,935.31,1095.84)">
                        <path d="M822.364,846.058C832.875,846.058 841.409,854.592 841.409,865.104C841.409,875.615 832.875,884.149 822.364,884.149C811.852,884.149 803.318,875.615 803.318,865.104C803.318,854.592 811.852,846.058 822.364,846.058ZM822.364,853.419C828.813,853.419 834.049,858.654 834.049,865.104C834.049,871.553 828.813,876.789 822.364,876.789C815.915,876.789 810.679,871.553 810.679,865.104C810.679,858.654 815.915,853.419 822.364,853.419Z" style="fill:rgb(237,242,244);"/>
                    </g>
                </g>
                <g transform="matrix(22.6791,-2.54476e-31,0,22.935,-15387.2,-26568)">
                    <g transform="matrix(1.09391,0,0,1.08171,337.012,473.469)">
                        <path d="M822.364,846.058C832.875,846.058 841.409,854.592 841.409,865.104C841.409,875.615 832.875,884.149 822.364,884.149C811.852,884.149 803.318,875.615 803.318,865.104C803.318,854.592 811.852,846.058 822.364,846.058ZM822.364,848.523C831.515,848.523 838.944,855.953 838.944,865.104C838.944,874.255 831.515,881.684 822.364,881.684C813.213,881.684 805.783,874.255 805.783,865.104C805.783,855.953 813.213,848.523 822.364,848.523Z" style="fill:rgb(237,242,244);"/>
                    </g>
                    <g transform="matrix(0.753093,0,0,0.744691,617.289,765.023)">
                        <path d="M822.364,846.058C832.875,846.058 841.409,854.592 841.409,865.104C841.409,875.615 832.875,884.149 822.364,884.149C811.852,884.149 803.318,875.615 803.318,865.104C803.318,854.592 811.852,846.058 822.364,846.058ZM822.364,849.639C830.899,849.639 837.828,856.568 837.828,865.104C837.828,873.639 830.899,880.568 822.364,880.568C813.829,880.568 806.899,873.639 806.899,865.104C806.899,856.568 813.829,849.639 822.364,849.639Z" style="fill:rgb(237,242,244);"/>
                    </g>
                    <g transform="matrix(0.366378,0,0,0.36229,935.31,1095.84)">
                        <path d="M822.364,846.058C832.875,846.058 841.409,854.592 841.409,865.104C841.409,875.615 832.875,884.149 822.364,884.149C811.852,884.149 803.318,875.615 803.318,865.104C803.318,854.592 811.852,846.058 822.364,846.058ZM822.364,853.419C828.813,853.419 834.049,858.654 834.049,865.104C834.049,871.553 828.813,876.789 822.364,876.789C815.915,876.789 810.679,871.553 810.679,865.104C810.679,858.654 815.915,853.419 822.364,853.419Z" style="fill:rgb(237,242,244);"/>
                    </g>
                </g>
                <g transform="matrix(1.53218,0,0,4.85224,10959.5,4396.85)">
                    <g transform="matrix(0.312055,0,0,0.216395,550.467,182.183)">
                        <rect x="0" y="0" width="800" height="900" style="fill:rgb(237,242,244);"/>
                    </g>
                    <g transform="matrix(13.208,-5.2445e-32,0,4.72668,-16182.4,-6381.55)">
                        <g transform="matrix(1.01128,0,0,0.882609,251.927,649.337)">
                            <path d="M1022.31,875.06C1022.27,880.185 1018.1,884.336 1012.97,884.336C1007.82,884.336 1003.63,880.153 1003.63,874.999L1022.31,874.999L1022.31,875.06Z" style="fill:rgb(141,153,174);"/>
                        </g>
                        <g transform="matrix(-1.01128,-1.22465e-16,1.09308e-16,-0.882609,2300.72,2169.18)">
                            <path d="M1022.31,875.06C1022.27,880.185 1018.1,884.336 1012.97,884.336C1007.82,884.336 1003.63,880.153 1003.63,874.999L1022.31,874.999L1022.31,875.06Z" style="fill:rgb(141,153,174);"/>
                        </g>
                        <g transform="matrix(1.01128,0,0,1.01088,251.927,536.084)">
                            <path d="M1012.97,859.703L1022.31,863.779L1012.97,867.855L1003.63,863.779L1012.97,859.703Z" style="fill:rgb(141,153,174);"/>
                        </g>
                        <g transform="matrix(1.01128,0,0,1.01088,251.927,544.325)">
                            <path d="M1012.97,859.703L1022.31,863.779L1012.97,867.855L1003.63,863.779L1012.97,859.703Z" style="fill:rgb(141,153,174);"/>
                        </g>
                        <g transform="matrix(1.01128,0,0,1.01088,251.927,527.843)">
                            <path d="M1012.97,859.703L1022.31,863.779L1012.97,867.855L1003.63,863.779L1012.97,859.703Z" style="fill:rgb(141,153,174);"/>
                        </g>
                    </g>
                </g>
            </g>
        </g>
    </g>
</svg>
